<svg width="186" height="170" viewBox="0 0 186 170" fill="none" xmlns="http://www.w3.org/2000/svg">
<path d="M185.26 138.82H177.58V146.5H185.26V138.82Z" fill="#637180"/>
<path d="M185.26 131.14H177.58V138.82H185.26V131.14Z" fill="#637180"/>
<path d="M185.26 123.44H177.58V131.12H185.26V123.44Z" fill="#637180"/>
<path d="M185.26 115.76H177.58V123.44H185.26V115.76Z" fill="#637180"/>
<path d="M185.26 108.06H177.58V115.74H185.26V108.06Z" fill="#637180"/>
<path d="M185.26 100.38H177.58V108.06H185.26V100.38Z" fill="#637180"/>
<path d="M177.56 146.5H169.88V154.18H177.56V146.5Z" fill="#637180"/>
<path d="M177.56 138.82H169.88V146.5H177.56V138.82Z" fill="#F4F7F9"/>
<path d="M177.56 131.14H169.88V138.82H177.56V131.14Z" fill="#F4F7F9"/>
<path d="M177.56 123.44H169.88V131.12H177.56V123.44Z" fill="#F4F7F9"/>
<path d="M177.56 115.76H169.88V123.44H177.56V115.76Z" fill="#F4F7F9"/>
<path d="M177.56 108.06H169.88V115.74H177.56V108.06Z" fill="#F4F7F9"/>
<path d="M177.56 100.38H169.88V108.06H177.56V100.38Z" fill="#F4F7F9"/>
<path d="M177.56 92.6799H169.88V100.36H177.56V92.6799Z" fill="#637180"/>
<path d="M177.56 85H169.88V92.68H177.56V85Z" fill="#637180"/>
<path d="M169.88 154.2H162.2V161.88H169.88V154.2Z" fill="#637180"/>
<path d="M169.88 146.5H162.2V154.18H169.88V146.5Z" fill="#D7DFE7"/>
<path d="M169.88 138.82H162.2V146.5H169.88V138.82Z" fill="#F4F7F9"/>
<path d="M169.88 131.14H162.2V138.82H169.88V131.14Z" fill="#F4F7F9"/>
<path d="M169.88 123.44H162.2V131.12H169.88V123.44Z" fill="#F4F7F9"/>
<path d="M169.88 115.76H162.2V123.44H169.88V115.76Z" fill="#F4F7F9"/>
<path d="M169.88 108.06H162.2V115.74H169.88V108.06Z" fill="#F4F7F9"/>
<path d="M169.88 100.38H162.2V108.06H169.88V100.38Z" fill="#F4F7F9"/>
<path d="M169.88 92.6799H162.2V100.36H169.88V92.6799Z" fill="#F4F7F9"/>
<path d="M169.88 85H162.2V92.68H169.88V85Z" fill="#F4F7F9"/>
<path d="M169.88 77.3198H162.2V84.9998H169.88V77.3198Z" fill="#637180"/>
<path d="M162.2 161.88H154.52V169.56H162.2V161.88Z" fill="#637180"/>
<path d="M162.2 154.2H154.52V161.88H162.2V154.2Z" fill="#D7DFE7"/>
<path d="M162.2 146.5H154.52V154.18H162.2V146.5Z" fill="#F4F7F9"/>
<path d="M162.2 138.82H154.52V146.5H162.2V138.82Z" fill="#F4F7F9"/>
<path d="M162.2 131.14H154.52V138.82H162.2V131.14Z" fill="#F4F7F9"/>
<path d="M162.2 123.44H154.52V131.12H162.2V123.44Z" fill="#F4F7F9"/>
<path d="M162.2 115.76H154.52V123.44H162.2V115.76Z" fill="#F4F7F9"/>
<path d="M162.2 108.06H154.52V115.74H162.2V108.06Z" fill="#F4F7F9"/>
<path d="M162.2 100.38H154.52V108.06H162.2V100.38Z" fill="#F4F7F9"/>
<path d="M162.2 92.6799H154.52V100.36H162.2V92.6799Z" fill="#F4F7F9"/>
<path d="M162.2 85H154.52V92.68H162.2V85Z" fill="#F4F7F9"/>
<path d="M162.2 77.3198H154.52V84.9998H162.2V77.3198Z" fill="#F4F7F9"/>
<path d="M162.2 69.6199H154.52V77.2999H162.2V69.6199Z" fill="#637180"/>
<path d="M154.5 161.88H146.82V169.56H154.5V161.88Z" fill="#637180"/>
<path d="M154.5 154.2H146.82V161.88H154.5V154.2Z" fill="#D7DFE7"/>
<path d="M154.5 146.5H146.82V154.18H154.5V146.5Z" fill="#F4F7F9"/>
<path d="M154.5 138.82H146.82V146.5H154.5V138.82Z" fill="#F4F7F9"/>
<path d="M154.5 131.14H146.82V138.82H154.5V131.14Z" fill="#F4F7F9"/>
<path d="M154.5 123.44H146.82V131.12H154.5V123.44Z" fill="#F4F7F9"/>
<path d="M154.5 115.76H146.82V123.44H154.5V115.76Z" fill="#F4F7F9"/>
<path d="M154.5 108.06H146.82V115.74H154.5V108.06Z" fill="#F4F7F9"/>
<path d="M154.5 100.38H146.82V108.06H154.5V100.38Z" fill="#F4F7F9"/>
<path d="M154.5 92.6799H146.82V100.36H154.5V92.6799Z" fill="#F4F7F9"/>
<path d="M154.5 85H146.82V92.68H154.5V85Z" fill="#F4F7F9"/>
<path d="M154.5 77.3198H146.82V84.9998H154.5V77.3198Z" fill="#F4F7F9"/>
<path d="M154.5 69.6199H146.82V77.2999H154.5V69.6199Z" fill="#F4F7F9"/>
<path d="M154.5 61.9399H146.82V69.6199H154.5V61.9399Z" fill="#637180"/>
<path d="M154.5 54.24H146.82V61.92H154.5V54.24Z" fill="#637180"/>
<path d="M154.5 46.5598H146.82V54.2398H154.5V46.5598Z" fill="#637180"/>
<path d="M154.5 38.8599H146.82V46.5399H154.5V38.8599Z" fill="#637180"/>
<path d="M154.5 31.1799H146.82V38.8599H154.5V31.1799Z" fill="#637180"/>
<path d="M154.5 23.5H146.82V31.18H154.5V23.5Z" fill="#637180"/>
<path d="M146.82 161.88H139.14V169.56H146.82V161.88Z" fill="#637180"/>
<path d="M146.82 154.2H139.14V161.88H146.82V154.2Z" fill="#D7DFE7"/>
<path d="M146.82 146.5H139.14V154.18H146.82V146.5Z" fill="#F4F7F9"/>
<path d="M146.82 138.82H139.14V146.5H146.82V138.82Z" fill="#F4F7F9"/>
<path d="M146.82 131.14H139.14V138.82H146.82V131.14Z" fill="#F4F7F9"/>
<path d="M146.82 123.44H139.14V131.12H146.82V123.44Z" fill="#F4F7F9"/>
<path d="M146.82 115.76H139.14V123.44H146.82V115.76Z" fill="#F4F7F9"/>
<path d="M146.82 108.06H139.14V115.74H146.82V108.06Z" fill="#F4F7F9"/>
<path d="M146.82 100.38H139.14V108.06H146.82V100.38Z" fill="#F4F7F9"/>
<path d="M146.82 92.6799H139.14V100.36H146.82V92.6799Z" fill="#F4F7F9"/>
<path d="M146.82 85H139.14V92.68H146.82V85Z" fill="#F4F7F9"/>
<path d="M146.82 77.3198H139.14V84.9998H146.82V77.3198Z" fill="#F4F7F9"/>
<path d="M146.82 69.6199H139.14V77.2999H146.82V69.6199Z" fill="#F4F7F9"/>
<path d="M146.82 61.9399H139.14V69.6199H146.82V61.9399Z" fill="#F4F7F9"/>
<path d="M146.82 54.24H139.14V61.92H146.82V54.24Z" fill="#F4F7F9"/>
<path d="M146.82 46.5598H139.14V54.2398H146.82V46.5598Z" fill="#F4F7F9"/>
<path d="M146.82 38.8599H139.14V46.5399H146.82V38.8599Z" fill="#F4F7F9"/>
<path d="M146.82 31.1799H139.14V38.8599H146.82V31.1799Z" fill="#F4F7F9"/>
<path d="M146.82 23.5H139.14V31.18H146.82V23.5Z" fill="#F4F7F9"/>
<path d="M146.82 15.7998H139.14V23.4798H146.82V15.7998Z" fill="#637180"/>
<path d="M146.82 8.11987H139.14V15.7999H146.82V8.11987Z" fill="#637180"/>
<path d="M139.12 161.88H131.44V169.56H139.12V161.88Z" fill="#637180"/>
<path d="M139.12 154.2H131.44V161.88H139.12V154.2Z" fill="#D7DFE7"/>
<path d="M139.12 146.5H131.44V154.18H139.12V146.5Z" fill="#F4F7F9"/>
<path d="M139.12 138.82H131.44V146.5H139.12V138.82Z" fill="#F4F7F9"/>
<path d="M139.12 131.14H131.44V138.82H139.12V131.14Z" fill="#F4F7F9"/>
<path d="M139.12 123.44H131.44V131.12H139.12V123.44Z" fill="#F4F7F9"/>
<path d="M139.12 115.76H131.44V123.44H139.12V115.76Z" fill="#F4F7F9"/>
<path d="M139.12 108.06H131.44V115.74H139.12V108.06Z" fill="#F4F7F9"/>
<path d="M139.12 100.38H131.44V108.06H139.12V100.38Z" fill="#F4F7F9"/>
<path d="M139.12 92.6799H131.44V100.36H139.12V92.6799Z" fill="#F4F7F9"/>
<path d="M139.12 85H131.44V92.68H139.12V85Z" fill="#F4F7F9"/>
<path d="M139.12 77.3198H131.44V84.9998H139.12V77.3198Z" fill="#F4F7F9"/>
<path d="M139.12 69.6199H131.44V77.2999H139.12V69.6199Z" fill="#F4F7F9"/>
<path d="M139.12 61.9399H131.44V69.6199H139.12V61.9399Z" fill="#F4F7F9"/>
<path d="M139.12 54.24H131.44V61.92H139.12V54.24Z" fill="#FFD000"/>
<path d="M139.12 46.5598H131.44V54.2398H139.12V46.5598Z" fill="#FFD000"/>
<path d="M139.12 38.8599H131.44V46.5399H139.12V38.8599Z" fill="#FFD000"/>
<path d="M139.12 31.1799H131.44V38.8599H139.12V31.1799Z" fill="#FFD000"/>
<path d="M139.12 23.5H131.44V31.18H139.12V23.5Z" fill="#F4F7F9"/>
<path d="M139.12 15.7998H131.44V23.4798H139.12V15.7998Z" fill="#F4F7F9"/>
<path d="M139.12 8.11987H131.44V15.7999H139.12V8.11987Z" fill="#D7DFE7"/>
<path d="M139.12 0.419922H131.44V8.09992H139.12V0.419922Z" fill="#637180"/>
<path d="M131.44 161.88H123.76V169.56H131.44V161.88Z" fill="#637180"/>
<path d="M131.44 154.2H123.76V161.88H131.44V154.2Z" fill="#D7DFE7"/>
<path d="M131.44 146.5H123.76V154.18H131.44V146.5Z" fill="#F4F7F9"/>
<path d="M131.44 138.82H123.76V146.5H131.44V138.82Z" fill="#F4F7F9"/>
<path d="M131.44 131.14H123.76V138.82H131.44V131.14Z" fill="#F4F7F9"/>
<path d="M131.44 123.44H123.76V131.12H131.44V123.44Z" fill="#F4F7F9"/>
<path d="M131.44 115.76H123.76V123.44H131.44V115.76Z" fill="#F4F7F9"/>
<path d="M131.44 108.06H123.76V115.74H131.44V108.06Z" fill="#F4F7F9"/>
<path d="M131.44 100.38H123.76V108.06H131.44V100.38Z" fill="#F4F7F9"/>
<path d="M131.44 92.6799H123.76V100.36H131.44V92.6799Z" fill="#F4F7F9"/>
<path d="M131.44 85H123.76V92.68H131.44V85Z" fill="#F4F7F9"/>
<path d="M131.44 77.3198H123.76V84.9998H131.44V77.3198Z" fill="#F4F7F9"/>
<path d="M131.44 69.6199H123.76V77.2999H131.44V69.6199Z" fill="#F4F7F9"/>
<path d="M131.44 61.9399H123.76V69.6199H131.44V61.9399Z" fill="#F4F7F9"/>
<path d="M131.44 54.24H123.76V61.92H131.44V54.24Z" fill="#FFBF00"/>
<path d="M131.44 46.5598H123.76V54.2398H131.44V46.5598Z" fill="#FFBF00"/>
<path d="M131.44 38.8599H123.76V46.5399H131.44V38.8599Z" fill="#FFBF00"/>
<path d="M131.44 31.1799H123.76V38.8599H131.44V31.1799Z" fill="#FFD000"/>
<path d="M131.44 23.5H123.76V31.18H131.44V23.5Z" fill="#FFD000"/>
<path d="M131.44 15.8H123.76V23.48H131.44V15.8Z" fill="#F4F7F9"/>
<path d="M131.44 8.11987H123.76V15.7999H131.44V8.11987Z" fill="#D7DFE7"/>
<path d="M131.44 0.419922H123.76V8.09992H131.44V0.419922Z" fill="#637180"/>
<path d="M123.74 161.88H116.06V169.56H123.74V161.88Z" fill="#637180"/>
<path d="M123.74 154.2H116.06V161.88H123.74V154.2Z" fill="#D7DFE7"/>
<path d="M123.74 146.5H116.06V154.18H123.74V146.5Z" fill="#F4F7F9"/>
<path d="M123.74 138.82H116.06V146.5H123.74V138.82Z" fill="#F4F7F9"/>
<path d="M123.74 131.14H116.06V138.82H123.74V131.14Z" fill="#F4F7F9"/>
<path d="M123.74 123.44H116.06V131.12H123.74V123.44Z" fill="#F4F7F9"/>
<path d="M123.74 115.76H116.06V123.44H123.74V115.76Z" fill="#F4F7F9"/>
<path d="M123.74 108.06H116.06V115.74H123.74V108.06Z" fill="#F4F7F9"/>
<path d="M123.74 100.38H116.06V108.06H123.74V100.38Z" fill="#F4F7F9"/>
<path d="M123.74 92.6799H116.06V100.36H123.74V92.6799Z" fill="#2F363E"/>
<path d="M123.74 85H116.06V92.68H123.74V85Z" fill="#2F363E"/>
<path d="M123.74 77.3198H116.06V84.9998H123.74V77.3198Z" fill="#F4F7F9"/>
<path d="M123.74 69.6199H116.06V77.2999H123.74V69.6199Z" fill="#F4F7F9"/>
<path d="M123.74 61.9399H116.06V69.6199H123.74V61.9399Z" fill="#F4F7F9"/>
<path d="M123.74 54.24H116.06V61.92H123.74V54.24Z" fill="#F4F7F9"/>
<path d="M123.74 46.5598H116.06V54.2398H123.74V46.5598Z" fill="#FFBF00"/>
<path d="M123.74 38.8599H116.06V46.5399H123.74V38.8599Z" fill="#FFBF00"/>
<path d="M123.74 31.1799H116.06V38.8599H123.74V31.1799Z" fill="#FFBF00"/>
<path d="M123.74 23.5H116.06V31.18H123.74V23.5Z" fill="#FFBF00"/>
<path d="M123.74 15.8H116.06V23.48H123.74V15.8Z" fill="#F4F7F9"/>
<path d="M123.74 8.11987H116.06V15.7999H123.74V8.11987Z" fill="#D7DFE7"/>
<path d="M123.74 0.419922H116.06V8.09992H123.74V0.419922Z" fill="#637180"/>
<path d="M116.06 161.88H108.38V169.56H116.06V161.88Z" fill="#637180"/>
<path d="M116.06 154.2H108.38V161.88H116.06V154.2Z" fill="#D7DFE7"/>
<path d="M116.06 146.5H108.38V154.18H116.06V146.5Z" fill="#F4F7F9"/>
<path d="M116.06 138.82H108.38V146.5H116.06V138.82Z" fill="#F4F7F9"/>
<path d="M116.06 131.14H108.38V138.82H116.06V131.14Z" fill="#F4F7F9"/>
<path d="M116.06 123.44H108.38V131.12H116.06V123.44Z" fill="#F4F7F9"/>
<path d="M116.06 115.76H108.38V123.44H116.06V115.76Z" fill="#F4F7F9"/>
<path d="M116.06 108.06H108.38V115.74H116.06V108.06Z" fill="#F4F7F9"/>
<path d="M116.06 100.38H108.38V108.06H116.06V100.38Z" fill="#F4F7F9"/>
<path d="M116.06 92.6799H108.38V100.36H116.06V92.6799Z" fill="#F4F7F9"/>
<path d="M116.06 85H108.38V92.68H116.06V85Z" fill="#F4F7F9"/>
<path d="M116.06 77.3198H108.38V84.9998H116.06V77.3198Z" fill="#F4F7F9"/>
<path d="M116.06 69.6199H108.38V77.2999H116.06V69.6199Z" fill="#F4F7F9"/>
<path d="M116.06 61.9399H108.38V69.6199H116.06V61.9399Z" fill="#F4F7F9"/>
<path d="M116.06 54.24H108.38V61.92H116.06V54.24Z" fill="#F4F7F9"/>
<path d="M116.06 46.5598H108.38V54.2398H116.06V46.5598Z" fill="#F4F7F9"/>
<path d="M116.06 38.8599H108.38V46.5399H116.06V38.8599Z" fill="#F4F7F9"/>
<path d="M116.06 31.1799H108.38V38.8599H116.06V31.1799Z" fill="#F4F7F9"/>
<path d="M116.06 23.5H108.38V31.18H116.06V23.5Z" fill="#F4F7F9"/>
<path d="M116.06 15.7998H108.38V23.4798H116.06V15.7998Z" fill="#F4F7F9"/>
<path d="M116.06 8.11987H108.38V15.7999H116.06V8.11987Z" fill="#D7DFE7"/>
<path d="M116.06 0.419922H108.38V8.09992H116.06V0.419922Z" fill="#637180"/>
<path d="M108.36 161.88H100.68V169.56H108.36V161.88Z" fill="#637180"/>
<path d="M108.36 154.2H100.68V161.88H108.36V154.2Z" fill="#D7DFE7"/>
<path d="M108.36 146.5H100.68V154.18H108.36V146.5Z" fill="#F4F7F9"/>
<path d="M108.36 138.82H100.68V146.5H108.36V138.82Z" fill="#F4F7F9"/>
<path d="M108.36 131.14H100.68V138.82H108.36V131.14Z" fill="#F4F7F9"/>
<path d="M108.36 123.44H100.68V131.12H108.36V123.44Z" fill="#F4F7F9"/>
<path d="M108.36 115.76H100.68V123.44H108.36V115.76Z" fill="#F4F7F9"/>
<path d="M108.36 108.06H100.68V115.74H108.36V108.06Z" fill="#B4C0CD"/>
<path d="M108.36 100.38H100.68V108.06H108.36V100.38Z" fill="#F4F7F9"/>
<path d="M108.36 92.6799H100.68V100.36H108.36V92.6799Z" fill="#F4F7F9"/>
<path d="M108.36 85H100.68V92.68H108.36V85Z" fill="#F4F7F9"/>
<path d="M108.36 77.3198H100.68V84.9998H108.36V77.3198Z" fill="#F4F7F9"/>
<path d="M108.36 69.6199H100.68V77.2999H108.36V69.6199Z" fill="#F4F7F9"/>
<path d="M108.36 61.9399H100.68V69.6199H108.36V61.9399Z" fill="#F4F7F9"/>
<path d="M108.36 54.24H100.68V61.92H108.36V54.24Z" fill="#D7DFE7"/>
<path d="M108.36 46.5598H100.68V54.2398H108.36V46.5598Z" fill="#D7DFE7"/>
<path d="M108.36 38.8599H100.68V46.5399H108.36V38.8599Z" fill="#D7DFE7"/>
<path d="M108.36 31.1799H100.68V38.8599H108.36V31.1799Z" fill="#D7DFE7"/>
<path d="M108.36 23.5H100.68V31.18H108.36V23.5Z" fill="#D7DFE7"/>
<path d="M108.36 15.7998H100.68V23.4798H108.36V15.7998Z" fill="#D7DFE7"/>
<path d="M108.36 8.11987H100.68V15.7999H108.36V8.11987Z" fill="#637180"/>
<path d="M100.68 161.88H93V169.56H100.68V161.88Z" fill="#637180"/>
<path d="M100.68 154.2H93V161.88H100.68V154.2Z" fill="#D7DFE7"/>
<path d="M100.68 146.5H93V154.18H100.68V146.5Z" fill="#F4F7F9"/>
<path d="M100.68 138.82H93V146.5H100.68V138.82Z" fill="#F4F7F9"/>
<path d="M100.68 131.14H93V138.82H100.68V131.14Z" fill="#F4F7F9"/>
<path d="M100.68 123.44H93V131.12H100.68V123.44Z" fill="#F4F7F9"/>
<path d="M100.68 115.76H93V123.44H100.68V115.76Z" fill="#F4F7F9"/>
<path d="M100.68 108.06H93V115.74H100.68V108.06Z" fill="#F4F7F9"/>
<path d="M100.68 100.38H93V108.06H100.68V100.38Z" fill="#B4C0CD"/>
<path d="M100.68 92.6799H93V100.36H100.68V92.6799Z" fill="#F4F7F9"/>
<path d="M100.68 85H93V92.68H100.68V85Z" fill="#F4F7F9"/>
<path d="M100.68 77.3198H93V84.9998H100.68V77.3198Z" fill="#F4F7F9"/>
<path d="M100.68 69.6199H93V77.2999H100.68V69.6199Z" fill="#F4F7F9"/>
<path d="M100.68 61.9399H93V69.6199H100.68V61.9399Z" fill="#F4F7F9"/>
<path d="M100.68 54.24H93V61.92H100.68V54.24Z" fill="#637180"/>
<path d="M100.68 46.5598H93V54.2398H100.68V46.5598Z" fill="#637180"/>
<path d="M100.68 38.8599H93V46.5399H100.68V38.8599Z" fill="#637180"/>
<path d="M100.68 31.1799H93V38.8599H100.68V31.1799Z" fill="#637180"/>
<path d="M100.68 23.5H93V31.18H100.68V23.5Z" fill="#637180"/>
<path d="M100.68 15.7998H93V23.4798H100.68V15.7998Z" fill="#637180"/>
<path d="M93.0001 161.88H85.3201V169.56H93.0001V161.88Z" fill="#637180"/>
<path d="M93.0001 154.2H85.3201V161.88H93.0001V154.2Z" fill="#D7DFE7"/>
<path d="M93.0001 146.5H85.3201V154.18H93.0001V146.5Z" fill="#F4F7F9"/>
<path d="M93.0001 138.82H85.3201V146.5H93.0001V138.82Z" fill="#F4F7F9"/>
<path d="M93.0001 131.14H85.3201V138.82H93.0001V131.14Z" fill="#F4F7F9"/>
<path d="M93.0001 123.44H85.3201V131.12H93.0001V123.44Z" fill="#F4F7F9"/>
<path d="M93.0001 115.76H85.3201V123.44H93.0001V115.76Z" fill="#F4F7F9"/>
<path d="M93.0001 108.06H85.3201V115.74H93.0001V108.06Z" fill="#B4C0CD"/>
<path d="M93.0001 100.38H85.3201V108.06H93.0001V100.38Z" fill="#F4F7F9"/>
<path d="M93.0001 92.6799H85.3201V100.36H93.0001V92.6799Z" fill="#F4F7F9"/>
<path d="M93.0001 85H85.3201V92.68H93.0001V85Z" fill="#F4F7F9"/>
<path d="M93.0001 77.3198H85.3201V84.9998H93.0001V77.3198Z" fill="#F4F7F9"/>
<path d="M93.0001 69.6199H85.3201V77.2999H93.0001V69.6199Z" fill="#F4F7F9"/>
<path d="M93.0001 61.9399H85.3201V69.6199H93.0001V61.9399Z" fill="#F4F7F9"/>
<path d="M93.0001 54.24H85.3201V61.92H93.0001V54.24Z" fill="#637180"/>
<path d="M85.3001 161.88H77.6201V169.56H85.3001V161.88Z" fill="#637180"/>
<path d="M85.3001 154.2H77.6201V161.88H85.3001V154.2Z" fill="#D7DFE7"/>
<path d="M85.3001 146.5H77.6201V154.18H85.3001V146.5Z" fill="#F4F7F9"/>
<path d="M85.3001 138.82H77.6201V146.5H85.3001V138.82Z" fill="#F4F7F9"/>
<path d="M85.3001 131.14H77.6201V138.82H85.3001V131.14Z" fill="#F4F7F9"/>
<path d="M85.3001 123.44H77.6201V131.12H85.3001V123.44Z" fill="#F4F7F9"/>
<path d="M85.3001 115.76H77.6201V123.44H85.3001V115.76Z" fill="#F4F7F9"/>
<path d="M85.3001 108.06H77.6201V115.74H85.3001V108.06Z" fill="#F4F7F9"/>
<path d="M85.3001 100.38H77.6201V108.06H85.3001V100.38Z" fill="#F4F7F9"/>
<path d="M85.3001 92.6799H77.6201V100.36H85.3001V92.6799Z" fill="#F4F7F9"/>
<path d="M85.3001 85H77.6201V92.68H85.3001V85Z" fill="#F4F7F9"/>
<path d="M85.3001 77.3198H77.6201V84.9998H85.3001V77.3198Z" fill="#F4F7F9"/>
<path d="M85.3001 69.6199H77.6201V77.2999H85.3001V69.6199Z" fill="#F4F7F9"/>
<path d="M85.3001 61.9399H77.6201V69.6199H85.3001V61.9399Z" fill="#F4F7F9"/>
<path d="M85.3001 54.24H77.6201V61.92H85.3001V54.24Z" fill="#637180"/>
<path d="M85.3001 46.5598H77.6201V54.2398H85.3001V46.5598Z" fill="#637180"/>
<path d="M85.3001 38.8599H77.6201V46.5399H85.3001V38.8599Z" fill="#637180"/>
<path d="M85.3001 31.1799H77.6201V38.8599H85.3001V31.1799Z" fill="#637180"/>
<path d="M85.3001 23.5H77.6201V31.18H85.3001V23.5Z" fill="#637180"/>
<path d="M85.3001 15.8H77.6201V23.48H85.3001V15.8Z" fill="#637180"/>
<path d="M77.6199 161.88H69.9399V169.56H77.6199V161.88Z" fill="#637180"/>
<path d="M77.6199 154.2H69.9399V161.88H77.6199V154.2Z" fill="#D7DFE7"/>
<path d="M77.6199 146.5H69.9399V154.18H77.6199V146.5Z" fill="#F4F7F9"/>
<path d="M77.6199 138.82H69.9399V146.5H77.6199V138.82Z" fill="#F4F7F9"/>
<path d="M77.6199 131.14H69.9399V138.82H77.6199V131.14Z" fill="#F4F7F9"/>
<path d="M77.6199 123.44H69.9399V131.12H77.6199V123.44Z" fill="#F4F7F9"/>
<path d="M77.6199 115.76H69.9399V123.44H77.6199V115.76Z" fill="#F4F7F9"/>
<path d="M77.6199 108.06H69.9399V115.74H77.6199V108.06Z" fill="#F4F7F9"/>
<path d="M77.6199 100.38H69.9399V108.06H77.6199V100.38Z" fill="#F4F7F9"/>
<path d="M77.6199 92.6799H69.9399V100.36H77.6199V92.6799Z" fill="#2F363E"/>
<path d="M77.6199 85H69.9399V92.68H77.6199V85Z" fill="#2F363E"/>
<path d="M77.6199 77.3198H69.9399V84.9998H77.6199V77.3198Z" fill="#F4F7F9"/>
<path d="M77.6199 69.6199H69.9399V77.2999H77.6199V69.6199Z" fill="#F4F7F9"/>
<path d="M77.6199 61.9399H69.9399V69.6199H77.6199V61.9399Z" fill="#F4F7F9"/>
<path d="M77.6199 54.24H69.9399V61.92H77.6199V54.24Z" fill="#F4F7F9"/>
<path d="M77.6199 46.5598H69.9399V54.2398H77.6199V46.5598Z" fill="#F4F7F9"/>
<path d="M77.6199 38.8599H69.9399V46.5399H77.6199V38.8599Z" fill="#F4F7F9"/>
<path d="M77.6199 31.1799H69.9399V38.8599H77.6199V31.1799Z" fill="#F4F7F9"/>
<path d="M77.6199 23.5H69.9399V31.18H77.6199V23.5Z" fill="#F4F7F9"/>
<path d="M77.6199 15.7998H69.9399V23.4798H77.6199V15.7998Z" fill="#F4F7F9"/>
<path d="M77.6199 8.11987H69.9399V15.7999H77.6199V8.11987Z" fill="#637180"/>
<path d="M69.92 161.88H62.24V169.56H69.92V161.88Z" fill="#637180"/>
<path d="M69.92 154.2H62.24V161.88H69.92V154.2Z" fill="#D7DFE7"/>
<path d="M69.92 146.5H62.24V154.18H69.92V146.5Z" fill="#F4F7F9"/>
<path d="M69.92 138.82H62.24V146.5H69.92V138.82Z" fill="#F4F7F9"/>
<path d="M69.92 131.14H62.24V138.82H69.92V131.14Z" fill="#F4F7F9"/>
<path d="M69.92 123.44H62.24V131.12H69.92V123.44Z" fill="#F4F7F9"/>
<path d="M69.92 115.76H62.24V123.44H69.92V115.76Z" fill="#F4F7F9"/>
<path d="M69.92 108.06H62.24V115.74H69.92V108.06Z" fill="#F4F7F9"/>
<path d="M69.92 100.38H62.24V108.06H69.92V100.38Z" fill="#F4F7F9"/>
<path d="M69.92 92.6799H62.24V100.36H69.92V92.6799Z" fill="#F4F7F9"/>
<path d="M69.92 85H62.24V92.68H69.92V85Z" fill="#F4F7F9"/>
<path d="M69.92 77.3198H62.24V84.9998H69.92V77.3198Z" fill="#F4F7F9"/>
<path d="M69.92 69.6199H62.24V77.2999H69.92V69.6199Z" fill="#F4F7F9"/>
<path d="M69.92 61.9399H62.24V69.6199H69.92V61.9399Z" fill="#F4F7F9"/>
<path d="M69.92 54.24H62.24V61.92H69.92V54.24Z" fill="#FFD000"/>
<path d="M69.92 46.5598H62.24V54.2398H69.92V46.5598Z" fill="#FFD000"/>
<path d="M69.92 38.8599H62.24V46.5399H69.92V38.8599Z" fill="#FFD000"/>
<path d="M69.92 31.1799H62.24V38.8599H69.92V31.1799Z" fill="#FFD000"/>
<path d="M69.92 23.5H62.24V31.18H69.92V23.5Z" fill="#F4F7F9"/>
<path d="M69.92 15.7998H62.24V23.4798H69.92V15.7998Z" fill="#F4F7F9"/>
<path d="M69.92 8.11987H62.24V15.7999H69.92V8.11987Z" fill="#D7DFE7"/>
<path d="M69.92 0.419922H62.24V8.09992H69.92V0.419922Z" fill="#637180"/>
<path d="M62.2398 161.88H54.5598V169.56H62.2398V161.88Z" fill="#637180"/>
<path d="M62.2398 154.2H54.5598V161.88H62.2398V154.2Z" fill="#D7DFE7"/>
<path d="M62.2398 146.5H54.5598V154.18H62.2398V146.5Z" fill="#F4F7F9"/>
<path d="M62.2398 138.82H54.5598V146.5H62.2398V138.82Z" fill="#F4F7F9"/>
<path d="M62.2398 131.14H54.5598V138.82H62.2398V131.14Z" fill="#F4F7F9"/>
<path d="M62.2398 123.44H54.5598V131.12H62.2398V123.44Z" fill="#F4F7F9"/>
<path d="M62.2398 115.76H54.5598V123.44H62.2398V115.76Z" fill="#F4F7F9"/>
<path d="M62.2398 108.06H54.5598V115.74H62.2398V108.06Z" fill="#F4F7F9"/>
<path d="M62.2398 100.38H54.5598V108.06H62.2398V100.38Z" fill="#F4F7F9"/>
<path d="M62.2398 92.6799H54.5598V100.36H62.2398V92.6799Z" fill="#F4F7F9"/>
<path d="M62.2398 85H54.5598V92.68H62.2398V85Z" fill="#F4F7F9"/>
<path d="M62.2398 77.3198H54.5598V84.9998H62.2398V77.3198Z" fill="#F4F7F9"/>
<path d="M62.2398 69.6199H54.5598V77.2999H62.2398V69.6199Z" fill="#F4F7F9"/>
<path d="M62.2398 61.9399H54.5598V69.6199H62.2398V61.9399Z" fill="#F4F7F9"/>
<path d="M62.2398 54.24H54.5598V61.92H62.2398V54.24Z" fill="#FFBF00"/>
<path d="M62.2398 46.5598H54.5598V54.2398H62.2398V46.5598Z" fill="#FFBF00"/>
<path d="M62.2398 38.8599H54.5598V46.5399H62.2398V38.8599Z" fill="#FFBF00"/>
<path d="M62.2398 31.1799H54.5598V38.8599H62.2398V31.1799Z" fill="#FFD000"/>
<path d="M62.2398 23.5H54.5598V31.18H62.2398V23.5Z" fill="#FFD000"/>
<path d="M62.2398 15.8H54.5598V23.48H62.2398V15.8Z" fill="#F4F7F9"/>
<path d="M62.2398 8.11987H54.5598V15.7999H62.2398V8.11987Z" fill="#D7DFE7"/>
<path d="M62.2398 0.419922H54.5598V8.09992H62.2398V0.419922Z" fill="#637180"/>
<path d="M54.5399 161.88H46.8599V169.56H54.5399V161.88Z" fill="#637180"/>
<path d="M54.5399 154.2H46.8599V161.88H54.5399V154.2Z" fill="#D7DFE7"/>
<path d="M54.5399 146.5H46.8599V154.18H54.5399V146.5Z" fill="#F4F7F9"/>
<path d="M54.5399 138.82H46.8599V146.5H54.5399V138.82Z" fill="#F4F7F9"/>
<path d="M54.5399 131.14H46.8599V138.82H54.5399V131.14Z" fill="#F4F7F9"/>
<path d="M54.5399 123.44H46.8599V131.12H54.5399V123.44Z" fill="#F4F7F9"/>
<path d="M54.5399 115.76H46.8599V123.44H54.5399V115.76Z" fill="#F4F7F9"/>
<path d="M54.5399 108.06H46.8599V115.74H54.5399V108.06Z" fill="#F4F7F9"/>
<path d="M54.5399 100.38H46.8599V108.06H54.5399V100.38Z" fill="#F4F7F9"/>
<path d="M54.5399 92.6799H46.8599V100.36H54.5399V92.6799Z" fill="#F4F7F9"/>
<path d="M54.5399 85H46.8599V92.68H54.5399V85Z" fill="#F4F7F9"/>
<path d="M54.5399 77.3198H46.8599V84.9998H54.5399V77.3198Z" fill="#F4F7F9"/>
<path d="M54.5399 69.6199H46.8599V77.2999H54.5399V69.6199Z" fill="#F4F7F9"/>
<path d="M54.5399 61.9399H46.8599V69.6199H54.5399V61.9399Z" fill="#F4F7F9"/>
<path d="M54.5399 54.24H46.8599V61.92H54.5399V54.24Z" fill="#F4F7F9"/>
<path d="M54.5399 46.5598H46.8599V54.2398H54.5399V46.5598Z" fill="#FFBF00"/>
<path d="M54.5399 38.8599H46.8599V46.5399H54.5399V38.8599Z" fill="#FFBF00"/>
<path d="M54.5399 31.1799H46.8599V38.8599H54.5399V31.1799Z" fill="#FFBF00"/>
<path d="M54.5399 23.5H46.8599V31.18H54.5399V23.5Z" fill="#FFBF00"/>
<path d="M54.5399 15.8H46.8599V23.48H54.5399V15.8Z" fill="#F4F7F9"/>
<path d="M54.5399 8.11987H46.8599V15.7999H54.5399V8.11987Z" fill="#D7DFE7"/>
<path d="M54.5399 0.419922H46.8599V8.09992H54.5399V0.419922Z" fill="#637180"/>
<path d="M46.8599 161.88H39.1799V169.56H46.8599V161.88Z" fill="#637180"/>
<path d="M46.8599 154.2H39.1799V161.88H46.8599V154.2Z" fill="#D7DFE7"/>
<path d="M46.8599 146.5H39.1799V154.18H46.8599V146.5Z" fill="#F4F7F9"/>
<path d="M46.8599 138.82H39.1799V146.5H46.8599V138.82Z" fill="#F4F7F9"/>
<path d="M46.8599 131.14H39.1799V138.82H46.8599V131.14Z" fill="#F4F7F9"/>
<path d="M46.8599 123.44H39.1799V131.12H46.8599V123.44Z" fill="#F4F7F9"/>
<path d="M46.8599 115.76H39.1799V123.44H46.8599V115.76Z" fill="#F4F7F9"/>
<path d="M46.8599 108.06H39.1799V115.74H46.8599V108.06Z" fill="#F4F7F9"/>
<path d="M46.8599 100.38H39.1799V108.06H46.8599V100.38Z" fill="#F4F7F9"/>
<path d="M46.8599 92.6799H39.1799V100.36H46.8599V92.6799Z" fill="#F4F7F9"/>
<path d="M46.8599 85H39.1799V92.68H46.8599V85Z" fill="#F4F7F9"/>
<path d="M46.8599 77.3198H39.1799V84.9998H46.8599V77.3198Z" fill="#F4F7F9"/>
<path d="M46.8599 69.6199H39.1799V77.2999H46.8599V69.6199Z" fill="#F4F7F9"/>
<path d="M46.8599 61.9399H39.1799V69.6199H46.8599V61.9399Z" fill="#F4F7F9"/>
<path d="M46.8599 54.24H39.1799V61.92H46.8599V54.24Z" fill="#F4F7F9"/>
<path d="M46.8599 46.5598H39.1799V54.2398H46.8599V46.5598Z" fill="#F4F7F9"/>
<path d="M46.8599 38.8599H39.1799V46.5399H46.8599V38.8599Z" fill="#F4F7F9"/>
<path d="M46.8599 31.1799H39.1799V38.8599H46.8599V31.1799Z" fill="#F4F7F9"/>
<path d="M46.8599 23.5H39.1799V31.18H46.8599V23.5Z" fill="#F4F7F9"/>
<path d="M46.8599 15.7998H39.1799V23.4798H46.8599V15.7998Z" fill="#F4F7F9"/>
<path d="M46.8599 8.11987H39.1799V15.7999H46.8599V8.11987Z" fill="#637180"/>
<path d="M39.16 161.88H31.48V169.56H39.16V161.88Z" fill="#637180"/>
<path d="M39.16 154.2H31.48V161.88H39.16V154.2Z" fill="#D7DFE7"/>
<path d="M39.16 146.5H31.48V154.18H39.16V146.5Z" fill="#F4F7F9"/>
<path d="M39.16 138.82H31.48V146.5H39.16V138.82Z" fill="#F4F7F9"/>
<path d="M39.16 131.14H31.48V138.82H39.16V131.14Z" fill="#F4F7F9"/>
<path d="M39.16 123.44H31.48V131.12H39.16V123.44Z" fill="#F4F7F9"/>
<path d="M39.16 115.76H31.48V123.44H39.16V115.76Z" fill="#F4F7F9"/>
<path d="M39.16 108.06H31.48V115.74H39.16V108.06Z" fill="#F4F7F9"/>
<path d="M39.16 100.38H31.48V108.06H39.16V100.38Z" fill="#F4F7F9"/>
<path d="M39.16 92.6799H31.48V100.36H39.16V92.6799Z" fill="#F4F7F9"/>
<path d="M39.16 85H31.48V92.68H39.16V85Z" fill="#F4F7F9"/>
<path d="M39.16 77.3198H31.48V84.9998H39.16V77.3198Z" fill="#F4F7F9"/>
<path d="M39.16 69.6199H31.48V77.2999H39.16V69.6199Z" fill="#F4F7F9"/>
<path d="M39.16 61.9399H31.48V69.6199H39.16V61.9399Z" fill="#637180"/>
<path d="M39.16 54.24H31.48V61.92H39.16V54.24Z" fill="#637180"/>
<path d="M39.16 46.5598H31.48V54.2398H39.16V46.5598Z" fill="#637180"/>
<path d="M39.16 38.8599H31.48V46.5399H39.16V38.8599Z" fill="#637180"/>
<path d="M39.16 31.1799H31.48V38.8599H39.16V31.1799Z" fill="#637180"/>
<path d="M39.16 23.5H31.48V31.18H39.16V23.5Z" fill="#637180"/>
<path d="M39.16 15.7998H31.48V23.4798H39.16V15.7998Z" fill="#637180"/>
<path d="M31.48 161.88H23.8V169.56H31.48V161.88Z" fill="#637180"/>
<path d="M31.48 154.2H23.8V161.88H31.48V154.2Z" fill="#D7DFE7"/>
<path d="M31.48 146.5H23.8V154.18H31.48V146.5Z" fill="#F4F7F9"/>
<path d="M31.48 138.82H23.8V146.5H31.48V138.82Z" fill="#F4F7F9"/>
<path d="M31.48 131.14H23.8V138.82H31.48V131.14Z" fill="#F4F7F9"/>
<path d="M31.48 123.44H23.8V131.12H31.48V123.44Z" fill="#F4F7F9"/>
<path d="M31.48 115.76H23.8V123.44H31.48V115.76Z" fill="#F4F7F9"/>
<path d="M31.48 108.06H23.8V115.74H31.48V108.06Z" fill="#F4F7F9"/>
<path d="M31.48 100.38H23.8V108.06H31.48V100.38Z" fill="#F4F7F9"/>
<path d="M31.48 92.6799H23.8V100.36H31.48V92.6799Z" fill="#F4F7F9"/>
<path d="M31.48 85H23.8V92.68H31.48V85Z" fill="#F4F7F9"/>
<path d="M31.48 77.3198H23.8V84.9998H31.48V77.3198Z" fill="#F4F7F9"/>
<path d="M31.48 69.6199H23.8V77.2999H31.48V69.6199Z" fill="#637180"/>
<path d="M23.8001 154.2H16.1201V161.88H23.8001V154.2Z" fill="#637180"/>
<path d="M23.8001 146.5H16.1201V154.18H23.8001V146.5Z" fill="#D7DFE7"/>
<path d="M23.8001 138.82H16.1201V146.5H23.8001V138.82Z" fill="#F4F7F9"/>
<path d="M23.8001 131.14H16.1201V138.82H23.8001V131.14Z" fill="#F4F7F9"/>
<path d="M23.8001 123.44H16.1201V131.12H23.8001V123.44Z" fill="#F4F7F9"/>
<path d="M23.8001 115.76H16.1201V123.44H23.8001V115.76Z" fill="#F4F7F9"/>
<path d="M23.8001 108.06H16.1201V115.74H23.8001V108.06Z" fill="#F4F7F9"/>
<path d="M23.8001 100.38H16.1201V108.06H23.8001V100.38Z" fill="#F4F7F9"/>
<path d="M23.8001 92.6799H16.1201V100.36H23.8001V92.6799Z" fill="#F4F7F9"/>
<path d="M23.8001 85H16.1201V92.68H23.8001V85Z" fill="#F4F7F9"/>
<path d="M23.8001 77.3198H16.1201V84.9998H23.8001V77.3198Z" fill="#637180"/>
<path d="M16.1002 146.5H8.42017V154.18H16.1002V146.5Z" fill="#637180"/>
<path d="M16.1002 138.82H8.42017V146.5H16.1002V138.82Z" fill="#F4F7F9"/>
<path d="M16.1002 131.14H8.42017V138.82H16.1002V131.14Z" fill="#F4F7F9"/>
<path d="M16.1002 123.44H8.42017V131.12H16.1002V123.44Z" fill="#F4F7F9"/>
<path d="M16.1002 115.76H8.42017V123.44H16.1002V115.76Z" fill="#F4F7F9"/>
<path d="M16.1002 108.06H8.42017V115.74H16.1002V108.06Z" fill="#F4F7F9"/>
<path d="M16.1002 100.38H8.42017V108.06H16.1002V100.38Z" fill="#F4F7F9"/>
<path d="M16.1002 92.6799H8.42017V100.36H16.1002V92.6799Z" fill="#637180"/>
<path d="M16.1002 85H8.42017V92.68H16.1002V85Z" fill="#637180"/>
<path d="M8.41999 138.82H0.73999V146.5H8.41999V138.82Z" fill="#637180"/>
<path d="M8.41999 131.14H0.73999V138.82H8.41999V131.14Z" fill="#637180"/>
<path d="M8.41999 123.44H0.73999V131.12H8.41999V123.44Z" fill="#637180"/>
<path d="M8.41999 115.76H0.73999V123.44H8.41999V115.76Z" fill="#637180"/>
<path d="M8.41999 108.06H0.73999V115.74H8.41999V108.06Z" fill="#637180"/>
<path d="M8.41999 100.38H0.73999V108.06H8.41999V100.38Z" fill="#637180"/>
</svg>
