<?xml version="1.0" encoding="UTF-8"?>
<svg xmlns="http://www.w3.org/2000/svg" version="1.1" viewBox="0 0 1024 1024">
  <defs>
    <style>
      .cls-1 {
        fill: #f4f7f9;
      }

      .cls-2 {
        fill: #d7dfe7;
      }

      .cls-3 {
        fill: #292d30;
      }

      .cls-4 {
        fill: #ffd000;
      }

      .cls-5 {
        fill: #637180;
      }

      .cls-6 {
        fill: #2f363e;
      }

      .cls-7 {
        fill: #b4c0cd;
      }

      .cls-8 {
        fill: #ffbf00;
      }
    </style>
  </defs>
  <!-- Generator: Adobe Illustrator 28.6.0, SVG Export Plug-In . SVG Version: 1.2.0 Build 709)  -->
  <g>
    <g id="Layer_1">
      <g id="Layer_1-2" data-name="Layer_1">
        <rect class="cls-3" width="1024" height="1024"/>
        <g>
          <rect class="cls-5" x="805" y="698.4" width="26.7" height="26.7"/>
          <rect class="cls-5" x="805" y="671.8" width="26.7" height="26.7"/>
          <rect class="cls-5" x="805" y="645.2" width="26.7" height="26.7"/>
          <rect class="cls-5" x="805" y="618.6" width="26.7" height="26.7"/>
          <rect class="cls-5" x="805" y="591.9" width="26.7" height="26.7"/>
          <rect class="cls-5" x="805" y="565.3" width="26.7" height="26.7"/>
          <rect class="cls-5" x="778.3" y="725.1" width="26.7" height="26.7"/>
          <rect class="cls-2" x="778.3" y="698.4" width="26.7" height="26.7"/>
          <rect class="cls-1" x="778.3" y="671.8" width="26.7" height="26.7"/>
          <rect class="cls-1" x="778.3" y="645.2" width="26.7" height="26.7"/>
          <rect class="cls-1" x="778.3" y="618.6" width="26.7" height="26.7"/>
          <rect class="cls-1" x="778.3" y="591.9" width="26.7" height="26.7"/>
          <rect class="cls-1" x="778.3" y="565.3" width="26.7" height="26.7"/>
          <rect class="cls-5" x="778.3" y="538.6" width="26.7" height="26.7"/>
          <rect class="cls-5" x="778.3" y="512" width="26.7" height="26.7"/>
          <rect class="cls-5" x="751.7" y="751.7" width="26.7" height="26.7"/>
          <rect class="cls-2" x="751.7" y="725.1" width="26.7" height="26.7"/>
          <rect class="cls-1" x="751.7" y="698.4" width="26.7" height="26.7"/>
          <rect class="cls-1" x="751.7" y="671.8" width="26.7" height="26.7"/>
          <rect class="cls-1" x="751.7" y="645.2" width="26.7" height="26.7"/>
          <rect class="cls-1" x="751.7" y="618.6" width="26.7" height="26.7"/>
          <rect class="cls-1" x="751.7" y="591.9" width="26.7" height="26.7"/>
          <rect class="cls-1" x="751.7" y="565.3" width="26.7" height="26.7"/>
          <rect class="cls-1" x="751.7" y="538.6" width="26.7" height="26.7"/>
          <rect class="cls-1" x="751.7" y="512" width="26.7" height="26.7"/>
          <rect class="cls-5" x="751.7" y="485.4" width="26.7" height="26.7"/>
          <rect class="cls-5" x="725.1" y="778.4" width="26.7" height="26.7"/>
          <rect class="cls-2" x="725.1" y="751.7" width="26.7" height="26.7"/>
          <rect class="cls-1" x="725.1" y="725.1" width="26.7" height="26.7"/>
          <rect class="cls-1" x="725.1" y="698.4" width="26.7" height="26.7"/>
          <rect class="cls-1" x="725.1" y="671.8" width="26.7" height="26.7"/>
          <rect class="cls-1" x="725.1" y="645.2" width="26.7" height="26.7"/>
          <rect class="cls-1" x="725.1" y="618.6" width="26.7" height="26.7"/>
          <rect class="cls-1" x="725.1" y="591.9" width="26.7" height="26.7"/>
          <rect class="cls-1" x="725.1" y="565.3" width="26.7" height="26.7"/>
          <rect class="cls-1" x="725.1" y="538.6" width="26.7" height="26.7"/>
          <rect class="cls-1" x="725.1" y="512" width="26.7" height="26.7"/>
          <rect class="cls-1" x="725.1" y="485.4" width="26.7" height="26.7"/>
          <rect class="cls-5" x="725.1" y="458.7" width="26.7" height="26.7"/>
          <rect class="cls-5" x="698.5" y="778.4" width="26.7" height="26.7"/>
          <rect class="cls-2" x="698.5" y="751.7" width="26.7" height="26.7"/>
          <rect class="cls-1" x="698.5" y="725.1" width="26.7" height="26.7"/>
          <rect class="cls-1" x="698.5" y="698.4" width="26.7" height="26.7"/>
          <rect class="cls-1" x="698.5" y="671.8" width="26.7" height="26.7"/>
          <rect class="cls-1" x="698.5" y="645.2" width="26.7" height="26.7"/>
          <rect class="cls-1" x="698.5" y="618.6" width="26.7" height="26.7"/>
          <rect class="cls-1" x="698.5" y="591.9" width="26.7" height="26.7"/>
          <rect class="cls-1" x="698.5" y="565.3" width="26.7" height="26.7"/>
          <rect class="cls-1" x="698.5" y="538.6" width="26.7" height="26.7"/>
          <rect class="cls-1" x="698.5" y="512" width="26.7" height="26.7"/>
          <rect class="cls-1" x="698.5" y="485.4" width="26.7" height="26.7"/>
          <rect class="cls-1" x="698.5" y="458.7" width="26.7" height="26.7"/>
          <rect class="cls-5" x="698.5" y="432.1" width="26.7" height="26.7"/>
          <rect class="cls-5" x="698.5" y="405.4" width="26.7" height="26.7"/>
          <rect class="cls-5" x="698.5" y="378.8" width="26.7" height="26.7"/>
          <rect class="cls-5" x="698.5" y="352.1" width="26.7" height="26.7"/>
          <rect class="cls-5" x="698.5" y="325.5" width="26.7" height="26.7"/>
          <rect class="cls-5" x="671.8" y="778.4" width="26.7" height="26.7"/>
          <rect class="cls-2" x="671.8" y="751.7" width="26.7" height="26.7"/>
          <rect class="cls-1" x="671.8" y="725.1" width="26.7" height="26.7"/>
          <rect class="cls-1" x="671.8" y="698.4" width="26.7" height="26.7"/>
          <rect class="cls-1" x="671.8" y="671.8" width="26.7" height="26.7"/>
          <rect class="cls-1" x="671.8" y="645.2" width="26.7" height="26.7"/>
          <rect class="cls-1" x="671.8" y="618.6" width="26.7" height="26.7"/>
          <rect class="cls-1" x="671.8" y="591.9" width="26.7" height="26.7"/>
          <rect class="cls-1" x="671.8" y="565.3" width="26.7" height="26.7"/>
          <rect class="cls-1" x="671.8" y="538.6" width="26.7" height="26.7"/>
          <rect class="cls-1" x="671.8" y="512" width="26.7" height="26.7"/>
          <rect class="cls-1" x="671.8" y="485.4" width="26.7" height="26.7"/>
          <rect class="cls-1" x="671.8" y="458.7" width="26.7" height="26.7"/>
          <rect class="cls-1" x="671.8" y="432.1" width="26.7" height="26.7"/>
          <rect class="cls-1" x="671.8" y="405.4" width="26.7" height="26.7"/>
          <rect class="cls-1" x="671.8" y="378.8" width="26.7" height="26.7"/>
          <rect class="cls-1" x="671.8" y="352.1" width="26.7" height="26.7"/>
          <rect class="cls-1" x="671.8" y="325.5" width="26.7" height="26.7"/>
          <rect class="cls-5" x="671.8" y="298.9" width="26.7" height="26.7"/>
          <rect class="cls-5" x="671.8" y="272.3" width="26.7" height="26.7"/>
          <rect class="cls-5" x="645.2" y="778.4" width="26.7" height="26.7"/>
          <rect class="cls-2" x="645.2" y="751.7" width="26.7" height="26.7"/>
          <rect class="cls-1" x="645.2" y="725.1" width="26.7" height="26.7"/>
          <rect class="cls-1" x="645.2" y="698.4" width="26.7" height="26.7"/>
          <rect class="cls-1" x="645.2" y="671.8" width="26.7" height="26.7"/>
          <rect class="cls-1" x="645.2" y="645.2" width="26.7" height="26.7"/>
          <rect class="cls-1" x="645.2" y="618.6" width="26.7" height="26.7"/>
          <rect class="cls-1" x="645.2" y="591.9" width="26.7" height="26.7"/>
          <rect class="cls-1" x="645.2" y="565.3" width="26.7" height="26.7"/>
          <rect class="cls-6" x="645.2" y="538.6" width="26.7" height="26.7"/>
          <rect class="cls-6" x="645.2" y="512" width="26.7" height="26.7"/>
          <rect class="cls-1" x="645.2" y="485.4" width="26.7" height="26.7"/>
          <rect class="cls-1" x="645.2" y="458.7" width="26.7" height="26.7"/>
          <rect class="cls-4" x="645.2" y="432.1" width="26.7" height="26.7"/>
          <rect class="cls-4" x="645.2" y="405.4" width="26.7" height="26.7"/>
          <rect class="cls-4" x="645.2" y="378.8" width="26.7" height="26.7"/>
          <rect class="cls-4" x="645.2" y="352.1" width="26.7" height="26.7"/>
          <rect class="cls-1" x="645.2" y="325.5" width="26.7" height="26.7"/>
          <rect class="cls-1" x="645.2" y="298.9" width="26.7" height="26.7"/>
          <rect class="cls-1" x="645.2" y="272.3" width="26.7" height="26.7"/>
          <rect class="cls-5" x="645.2" y="245.6" width="26.7" height="26.7"/>
          <rect class="cls-5" x="618.5" y="778.4" width="26.7" height="26.7"/>
          <rect class="cls-2" x="618.5" y="751.7" width="26.7" height="26.7"/>
          <rect class="cls-1" x="618.5" y="725.1" width="26.7" height="26.7"/>
          <rect class="cls-1" x="618.5" y="698.4" width="26.7" height="26.7"/>
          <rect class="cls-1" x="618.5" y="671.8" width="26.7" height="26.7"/>
          <rect class="cls-1" x="618.5" y="645.2" width="26.7" height="26.7"/>
          <rect class="cls-1" x="618.5" y="618.6" width="26.7" height="26.7"/>
          <rect class="cls-7" x="618.5" y="591.9" width="26.7" height="26.7"/>
          <rect class="cls-1" x="618.5" y="565.3" width="26.7" height="26.7"/>
          <rect class="cls-1" x="618.5" y="538.6" width="26.7" height="26.7"/>
          <rect class="cls-1" x="618.5" y="512" width="26.7" height="26.7"/>
          <rect class="cls-1" x="618.5" y="485.4" width="26.7" height="26.7"/>
          <rect class="cls-1" x="618.5" y="458.7" width="26.7" height="26.7"/>
          <rect class="cls-8" x="618.5" y="432.1" width="26.7" height="26.7"/>
          <rect class="cls-8" x="618.5" y="405.4" width="26.7" height="26.7"/>
          <rect class="cls-8" x="618.5" y="378.8" width="26.7" height="26.7"/>
          <rect class="cls-8" x="618.5" y="352.1" width="26.7" height="26.7"/>
          <rect class="cls-4" x="618.5" y="325.5" width="26.7" height="26.7"/>
          <rect class="cls-4" x="618.5" y="298.9" width="26.7" height="26.7"/>
          <rect class="cls-1" x="618.5" y="272.3" width="26.7" height="26.7"/>
          <rect class="cls-2" x="618.5" y="245.6" width="26.7" height="26.7"/>
          <rect class="cls-5" x="618.5" y="219" width="26.7" height="26.7"/>
          <rect class="cls-5" x="592" y="778.4" width="26.7" height="26.7"/>
          <rect class="cls-2" x="592" y="751.7" width="26.7" height="26.7"/>
          <rect class="cls-1" x="592" y="725.1" width="26.7" height="26.7"/>
          <rect class="cls-1" x="592" y="698.4" width="26.7" height="26.7"/>
          <rect class="cls-1" x="592" y="671.8" width="26.7" height="26.7"/>
          <rect class="cls-1" x="592" y="645.2" width="26.7" height="26.7"/>
          <rect class="cls-1" x="592" y="618.6" width="26.7" height="26.7"/>
          <rect class="cls-1" x="592" y="591.9" width="26.7" height="26.7"/>
          <rect class="cls-7" x="592" y="565.3" width="26.7" height="26.7"/>
          <rect class="cls-1" x="592" y="538.6" width="26.7" height="26.7"/>
          <rect class="cls-1" x="592" y="512" width="26.7" height="26.7"/>
          <rect class="cls-1" x="592" y="485.4" width="26.7" height="26.7"/>
          <rect class="cls-1" x="592" y="458.7" width="26.7" height="26.7"/>
          <rect class="cls-1" x="592" y="432.1" width="26.7" height="26.7"/>
          <rect class="cls-8" x="592" y="405.4" width="26.7" height="26.7"/>
          <rect class="cls-8" x="592" y="378.8" width="26.7" height="26.7"/>
          <rect class="cls-8" x="592" y="352.1" width="26.7" height="26.7"/>
          <rect class="cls-8" x="592" y="325.5" width="26.7" height="26.7"/>
          <rect class="cls-8" x="592" y="298.9" width="26.7" height="26.7"/>
          <rect class="cls-1" x="592" y="272.3" width="26.7" height="26.7"/>
          <rect class="cls-2" x="592" y="245.6" width="26.7" height="26.7"/>
          <rect class="cls-5" x="592" y="219" width="26.7" height="26.7"/>
          <rect class="cls-5" x="565.3" y="778.4" width="26.7" height="26.7"/>
          <rect class="cls-2" x="565.3" y="751.7" width="26.7" height="26.7"/>
          <rect class="cls-1" x="565.3" y="725.1" width="26.7" height="26.7"/>
          <rect class="cls-1" x="565.3" y="698.4" width="26.7" height="26.7"/>
          <rect class="cls-1" x="565.3" y="671.8" width="26.7" height="26.7"/>
          <rect class="cls-1" x="565.3" y="645.2" width="26.7" height="26.7"/>
          <rect class="cls-1" x="565.3" y="618.6" width="26.7" height="26.7"/>
          <rect class="cls-7" x="565.3" y="591.9" width="26.7" height="26.7"/>
          <rect class="cls-1" x="565.3" y="565.3" width="26.7" height="26.7"/>
          <rect class="cls-1" x="565.3" y="538.6" width="26.7" height="26.7"/>
          <rect class="cls-1" x="565.3" y="512" width="26.7" height="26.7"/>
          <rect class="cls-1" x="565.3" y="485.4" width="26.7" height="26.7"/>
          <rect class="cls-1" x="565.3" y="458.7" width="26.7" height="26.7"/>
          <rect class="cls-1" x="565.3" y="432.1" width="26.7" height="26.7"/>
          <rect class="cls-1" x="565.3" y="405.4" width="26.7" height="26.7"/>
          <rect class="cls-1" x="565.3" y="378.8" width="26.7" height="26.7"/>
          <rect class="cls-1" x="565.3" y="352.1" width="26.7" height="26.7"/>
          <rect class="cls-1" x="565.3" y="325.5" width="26.7" height="26.7"/>
          <rect class="cls-1" x="565.3" y="298.9" width="26.7" height="26.7"/>
          <rect class="cls-1" x="565.3" y="272.3" width="26.7" height="26.7"/>
          <rect class="cls-2" x="565.3" y="245.6" width="26.7" height="26.7"/>
          <rect class="cls-5" x="565.3" y="219" width="26.7" height="26.7"/>
          <rect class="cls-5" x="538.7" y="778.4" width="26.7" height="26.7"/>
          <rect class="cls-2" x="538.7" y="751.7" width="26.7" height="26.7"/>
          <rect class="cls-1" x="538.7" y="725.1" width="26.7" height="26.7"/>
          <rect class="cls-1" x="538.7" y="698.4" width="26.7" height="26.7"/>
          <rect class="cls-1" x="538.7" y="671.8" width="26.7" height="26.7"/>
          <rect class="cls-1" x="538.7" y="645.2" width="26.7" height="26.7"/>
          <rect class="cls-1" x="538.7" y="618.6" width="26.7" height="26.7"/>
          <rect class="cls-1" x="538.7" y="591.9" width="26.7" height="26.7"/>
          <rect class="cls-1" x="538.7" y="565.3" width="26.7" height="26.7"/>
          <rect class="cls-1" x="538.7" y="538.6" width="26.7" height="26.7"/>
          <rect class="cls-1" x="538.7" y="512" width="26.7" height="26.7"/>
          <rect class="cls-1" x="538.7" y="485.4" width="26.7" height="26.7"/>
          <rect class="cls-1" x="538.7" y="458.7" width="26.7" height="26.7"/>
          <rect class="cls-2" x="538.7" y="432.1" width="26.7" height="26.7"/>
          <rect class="cls-2" x="538.7" y="405.4" width="26.7" height="26.7"/>
          <rect class="cls-2" x="538.7" y="378.8" width="26.7" height="26.7"/>
          <rect class="cls-2" x="538.7" y="352.1" width="26.7" height="26.7"/>
          <rect class="cls-2" x="538.7" y="325.5" width="26.7" height="26.7"/>
          <rect class="cls-2" x="538.7" y="298.9" width="26.7" height="26.7"/>
          <rect class="cls-2" x="538.7" y="272.3" width="26.7" height="26.7"/>
          <rect class="cls-5" x="538.7" y="245.6" width="26.7" height="26.7"/>
          <rect class="cls-5" x="512" y="778.4" width="26.7" height="26.7"/>
          <rect class="cls-2" x="512" y="751.7" width="26.7" height="26.7"/>
          <rect class="cls-1" x="512" y="725.1" width="26.7" height="26.7"/>
          <rect class="cls-1" x="512" y="698.4" width="26.7" height="26.7"/>
          <rect class="cls-1" x="512" y="671.8" width="26.7" height="26.7"/>
          <rect class="cls-1" x="512" y="645.2" width="26.7" height="26.7"/>
          <rect class="cls-1" x="512" y="618.6" width="26.7" height="26.7"/>
          <rect class="cls-1" x="512" y="591.9" width="26.7" height="26.7"/>
          <rect class="cls-1" x="512" y="565.3" width="26.7" height="26.7"/>
          <rect class="cls-6" x="512" y="538.6" width="26.7" height="26.7"/>
          <rect class="cls-6" x="512" y="512" width="26.7" height="26.7"/>
          <rect class="cls-1" x="512" y="485.4" width="26.7" height="26.7"/>
          <rect class="cls-1" x="512" y="458.7" width="26.7" height="26.7"/>
          <rect class="cls-5" x="512" y="432.1" width="26.7" height="26.7"/>
          <rect class="cls-5" x="512" y="405.4" width="26.7" height="26.7"/>
          <rect class="cls-5" x="512" y="378.8" width="26.7" height="26.7"/>
          <rect class="cls-5" x="512" y="352.1" width="26.7" height="26.7"/>
          <rect class="cls-5" x="512" y="325.5" width="26.7" height="26.7"/>
          <rect class="cls-5" x="512" y="298.9" width="26.7" height="26.7"/>
          <rect class="cls-5" x="512" y="272.3" width="26.7" height="26.7"/>
          <rect class="cls-5" x="485.3" y="778.4" width="26.7" height="26.7"/>
          <rect class="cls-2" x="485.3" y="751.7" width="26.7" height="26.7"/>
          <rect class="cls-1" x="485.3" y="725.1" width="26.7" height="26.7"/>
          <rect class="cls-1" x="485.3" y="698.4" width="26.7" height="26.7"/>
          <rect class="cls-1" x="485.3" y="671.8" width="26.7" height="26.7"/>
          <rect class="cls-1" x="485.3" y="645.2" width="26.7" height="26.7"/>
          <rect class="cls-1" x="485.3" y="618.6" width="26.7" height="26.7"/>
          <rect class="cls-1" x="485.3" y="591.9" width="26.7" height="26.7"/>
          <rect class="cls-1" x="485.3" y="565.3" width="26.7" height="26.7"/>
          <rect class="cls-1" x="485.3" y="538.6" width="26.7" height="26.7"/>
          <rect class="cls-1" x="485.3" y="512" width="26.7" height="26.7"/>
          <rect class="cls-1" x="485.3" y="485.4" width="26.7" height="26.7"/>
          <rect class="cls-1" x="485.3" y="458.7" width="26.7" height="26.7"/>
          <rect class="cls-5" x="485.3" y="432.1" width="26.7" height="26.7"/>
          <rect class="cls-5" x="458.7" y="778.4" width="26.7" height="26.7"/>
          <rect class="cls-2" x="458.7" y="751.7" width="26.7" height="26.7"/>
          <rect class="cls-1" x="458.7" y="725.1" width="26.7" height="26.7"/>
          <rect class="cls-1" x="458.7" y="698.4" width="26.7" height="26.7"/>
          <rect class="cls-1" x="458.7" y="671.8" width="26.7" height="26.7"/>
          <rect class="cls-1" x="458.7" y="645.2" width="26.7" height="26.7"/>
          <rect class="cls-1" x="458.7" y="618.6" width="26.7" height="26.7"/>
          <rect class="cls-1" x="458.7" y="591.9" width="26.7" height="26.7"/>
          <rect class="cls-1" x="458.7" y="565.3" width="26.7" height="26.7"/>
          <rect class="cls-1" x="458.7" y="538.6" width="26.7" height="26.7"/>
          <rect class="cls-1" x="458.7" y="512" width="26.7" height="26.7"/>
          <rect class="cls-1" x="458.7" y="485.4" width="26.7" height="26.7"/>
          <rect class="cls-1" x="458.7" y="458.7" width="26.7" height="26.7"/>
          <rect class="cls-5" x="458.7" y="432.1" width="26.7" height="26.7"/>
          <rect class="cls-5" x="458.7" y="405.4" width="26.7" height="26.7"/>
          <rect class="cls-5" x="458.7" y="378.8" width="26.7" height="26.7"/>
          <rect class="cls-5" x="458.7" y="352.1" width="26.7" height="26.7"/>
          <rect class="cls-5" x="458.7" y="325.5" width="26.7" height="26.7"/>
          <rect class="cls-5" x="458.7" y="298.9" width="26.7" height="26.7"/>
          <rect class="cls-5" x="432" y="778.4" width="26.7" height="26.7"/>
          <rect class="cls-2" x="432" y="751.7" width="26.7" height="26.7"/>
          <rect class="cls-1" x="432" y="725.1" width="26.7" height="26.7"/>
          <rect class="cls-1" x="432" y="698.4" width="26.7" height="26.7"/>
          <rect class="cls-1" x="432" y="671.8" width="26.7" height="26.7"/>
          <rect class="cls-1" x="432" y="645.2" width="26.7" height="26.7"/>
          <rect class="cls-1" x="432" y="618.6" width="26.7" height="26.7"/>
          <rect class="cls-1" x="432" y="591.9" width="26.7" height="26.7"/>
          <rect class="cls-1" x="432" y="565.3" width="26.7" height="26.7"/>
          <rect class="cls-1" x="432" y="538.6" width="26.7" height="26.7"/>
          <rect class="cls-1" x="432" y="512" width="26.7" height="26.7"/>
          <rect class="cls-1" x="432" y="485.4" width="26.7" height="26.7"/>
          <rect class="cls-1" x="432" y="458.7" width="26.7" height="26.7"/>
          <rect class="cls-1" x="432" y="432.1" width="26.7" height="26.7"/>
          <rect class="cls-1" x="432" y="405.4" width="26.7" height="26.7"/>
          <rect class="cls-1" x="432" y="378.8" width="26.7" height="26.7"/>
          <rect class="cls-1" x="432" y="352.1" width="26.7" height="26.7"/>
          <rect class="cls-1" x="432" y="325.5" width="26.7" height="26.7"/>
          <rect class="cls-1" x="432" y="298.9" width="26.7" height="26.7"/>
          <rect class="cls-5" x="432" y="272.3" width="26.7" height="26.7"/>
          <rect class="cls-5" x="405.5" y="778.4" width="26.7" height="26.7"/>
          <rect class="cls-2" x="405.5" y="751.7" width="26.7" height="26.7"/>
          <rect class="cls-1" x="405.5" y="725.1" width="26.7" height="26.7"/>
          <rect class="cls-1" x="405.5" y="698.4" width="26.7" height="26.7"/>
          <rect class="cls-1" x="405.5" y="671.8" width="26.7" height="26.7"/>
          <rect class="cls-1" x="405.5" y="645.2" width="26.7" height="26.7"/>
          <rect class="cls-1" x="405.5" y="618.6" width="26.7" height="26.7"/>
          <rect class="cls-1" x="405.5" y="591.9" width="26.7" height="26.7"/>
          <rect class="cls-1" x="405.5" y="565.3" width="26.7" height="26.7"/>
          <rect class="cls-1" x="405.5" y="538.6" width="26.7" height="26.7"/>
          <rect class="cls-1" x="405.5" y="512" width="26.7" height="26.7"/>
          <rect class="cls-1" x="405.5" y="485.4" width="26.7" height="26.7"/>
          <rect class="cls-1" x="405.5" y="458.7" width="26.7" height="26.7"/>
          <rect class="cls-4" x="405.5" y="432.1" width="26.7" height="26.7"/>
          <rect class="cls-4" x="405.5" y="405.4" width="26.7" height="26.7"/>
          <rect class="cls-4" x="405.5" y="378.8" width="26.7" height="26.7"/>
          <rect class="cls-4" x="405.5" y="352.1" width="26.7" height="26.7"/>
          <rect class="cls-4" x="405.5" y="325.5" width="26.7" height="26.7"/>
          <rect class="cls-1" x="405.5" y="298.9" width="26.7" height="26.7"/>
          <rect class="cls-1" x="405.5" y="272.3" width="26.7" height="26.7"/>
          <rect class="cls-5" x="405.5" y="245.6" width="26.7" height="26.7"/>
          <rect class="cls-5" x="378.8" y="778.4" width="26.7" height="26.7"/>
          <rect class="cls-2" x="378.8" y="751.7" width="26.7" height="26.7"/>
          <rect class="cls-1" x="378.8" y="725.1" width="26.7" height="26.7"/>
          <rect class="cls-1" x="378.8" y="698.4" width="26.7" height="26.7"/>
          <rect class="cls-1" x="378.8" y="671.8" width="26.7" height="26.7"/>
          <rect class="cls-1" x="378.8" y="645.2" width="26.7" height="26.7"/>
          <rect class="cls-1" x="378.8" y="618.6" width="26.7" height="26.7"/>
          <rect class="cls-1" x="378.8" y="591.9" width="26.7" height="26.7"/>
          <rect class="cls-1" x="378.8" y="565.3" width="26.7" height="26.7"/>
          <rect class="cls-1" x="378.8" y="538.6" width="26.7" height="26.7"/>
          <rect class="cls-1" x="378.8" y="512" width="26.7" height="26.7"/>
          <rect class="cls-1" x="378.8" y="485.4" width="26.7" height="26.7"/>
          <rect class="cls-1" x="378.8" y="458.7" width="26.7" height="26.7"/>
          <rect class="cls-8" x="378.8" y="432.1" width="26.7" height="26.7"/>
          <rect class="cls-8" x="378.8" y="405.4" width="26.7" height="26.7"/>
          <rect class="cls-8" x="378.8" y="378.8" width="26.7" height="26.7"/>
          <rect class="cls-8" x="378.8" y="352.1" width="26.7" height="26.7"/>
          <rect class="cls-4" x="378.8" y="325.5" width="26.7" height="26.7"/>
          <rect class="cls-4" x="378.8" y="298.9" width="26.7" height="26.7"/>
          <rect class="cls-1" x="378.8" y="272.3" width="26.7" height="26.7"/>
          <rect class="cls-2" x="378.8" y="245.6" width="26.7" height="26.7"/>
          <rect class="cls-5" x="378.8" y="219" width="26.7" height="26.7"/>
          <rect class="cls-5" x="352.2" y="778.4" width="26.7" height="26.7"/>
          <rect class="cls-2" x="352.2" y="751.7" width="26.7" height="26.7"/>
          <rect class="cls-1" x="352.2" y="725.1" width="26.7" height="26.7"/>
          <rect class="cls-1" x="352.2" y="698.4" width="26.7" height="26.7"/>
          <rect class="cls-1" x="352.2" y="671.8" width="26.7" height="26.7"/>
          <rect class="cls-1" x="352.2" y="645.2" width="26.7" height="26.7"/>
          <rect class="cls-1" x="352.2" y="618.6" width="26.7" height="26.7"/>
          <rect class="cls-1" x="352.2" y="591.9" width="26.7" height="26.7"/>
          <rect class="cls-1" x="352.2" y="565.3" width="26.7" height="26.7"/>
          <rect class="cls-1" x="352.2" y="538.6" width="26.7" height="26.7"/>
          <rect class="cls-1" x="352.2" y="512" width="26.7" height="26.7"/>
          <rect class="cls-1" x="352.2" y="485.4" width="26.7" height="26.7"/>
          <rect class="cls-1" x="352.2" y="458.7" width="26.7" height="26.7"/>
          <rect class="cls-1" x="352.2" y="432.1" width="26.7" height="26.7"/>
          <rect class="cls-8" x="352.2" y="405.4" width="26.7" height="26.7"/>
          <rect class="cls-8" x="352.2" y="378.8" width="26.7" height="26.7"/>
          <rect class="cls-8" x="352.2" y="352.1" width="26.7" height="26.7"/>
          <rect class="cls-8" x="352.2" y="325.5" width="26.7" height="26.7"/>
          <rect class="cls-8" x="352.2" y="298.9" width="26.7" height="26.7"/>
          <rect class="cls-1" x="352.2" y="272.3" width="26.7" height="26.7"/>
          <rect class="cls-2" x="352.2" y="245.6" width="26.7" height="26.7"/>
          <rect class="cls-5" x="352.2" y="219" width="26.7" height="26.7"/>
          <rect class="cls-5" x="325.5" y="778.4" width="26.7" height="26.7"/>
          <rect class="cls-2" x="325.5" y="751.7" width="26.7" height="26.7"/>
          <rect class="cls-1" x="325.5" y="725.1" width="26.7" height="26.7"/>
          <rect class="cls-1" x="325.5" y="698.4" width="26.7" height="26.7"/>
          <rect class="cls-1" x="325.5" y="671.8" width="26.7" height="26.7"/>
          <rect class="cls-1" x="325.5" y="645.2" width="26.7" height="26.7"/>
          <rect class="cls-1" x="325.5" y="618.6" width="26.7" height="26.7"/>
          <rect class="cls-1" x="325.5" y="591.9" width="26.7" height="26.7"/>
          <rect class="cls-1" x="325.5" y="565.3" width="26.7" height="26.7"/>
          <rect class="cls-1" x="325.5" y="538.6" width="26.7" height="26.7"/>
          <rect class="cls-1" x="325.5" y="512" width="26.7" height="26.7"/>
          <rect class="cls-1" x="325.5" y="485.4" width="26.7" height="26.7"/>
          <rect class="cls-1" x="325.5" y="458.7" width="26.7" height="26.7"/>
          <rect class="cls-1" x="325.5" y="432.1" width="26.7" height="26.7"/>
          <rect class="cls-1" x="325.5" y="405.4" width="26.7" height="26.7"/>
          <rect class="cls-1" x="325.5" y="378.8" width="26.7" height="26.7"/>
          <rect class="cls-1" x="325.5" y="352.1" width="26.7" height="26.7"/>
          <rect class="cls-1" x="325.5" y="325.5" width="26.7" height="26.7"/>
          <rect class="cls-1" x="325.5" y="298.9" width="26.7" height="26.7"/>
          <rect class="cls-1" x="325.5" y="272.3" width="26.7" height="26.7"/>
          <rect class="cls-2" x="325.5" y="245.6" width="26.7" height="26.7"/>
          <rect class="cls-5" x="325.5" y="219" width="26.7" height="26.7"/>
          <rect class="cls-5" x="298.9" y="778.4" width="26.7" height="26.7"/>
          <rect class="cls-2" x="298.9" y="751.7" width="26.7" height="26.7"/>
          <rect class="cls-1" x="298.9" y="725.1" width="26.7" height="26.7"/>
          <rect class="cls-1" x="298.9" y="698.4" width="26.7" height="26.7"/>
          <rect class="cls-1" x="298.9" y="671.8" width="26.7" height="26.7"/>
          <rect class="cls-1" x="298.9" y="645.2" width="26.7" height="26.7"/>
          <rect class="cls-1" x="298.9" y="618.6" width="26.7" height="26.7"/>
          <rect class="cls-1" x="298.9" y="591.9" width="26.7" height="26.7"/>
          <rect class="cls-1" x="298.9" y="565.3" width="26.7" height="26.7"/>
          <rect class="cls-1" x="298.9" y="538.6" width="26.7" height="26.7"/>
          <rect class="cls-1" x="298.9" y="512" width="26.7" height="26.7"/>
          <rect class="cls-1" x="298.9" y="485.4" width="26.7" height="26.7"/>
          <rect class="cls-1" x="298.9" y="458.7" width="26.7" height="26.7"/>
          <rect class="cls-2" x="298.9" y="432.1" width="26.7" height="26.7"/>
          <rect class="cls-2" x="298.9" y="405.4" width="26.7" height="26.7"/>
          <rect class="cls-2" x="298.9" y="378.8" width="26.7" height="26.7"/>
          <rect class="cls-2" x="298.9" y="352.1" width="26.7" height="26.7"/>
          <rect class="cls-5" x="298.9" y="325.5" width="26.7" height="26.7"/>
          <rect class="cls-5" x="298.9" y="298.9" width="26.7" height="26.7"/>
          <rect class="cls-5" x="298.9" y="272.3" width="26.7" height="26.7"/>
          <rect class="cls-5" x="298.9" y="245.6" width="26.7" height="26.7"/>
          <rect class="cls-5" x="272.2" y="751.7" width="26.7" height="26.7"/>
          <rect class="cls-2" x="272.2" y="725.1" width="26.7" height="26.7"/>
          <rect class="cls-1" x="272.2" y="698.4" width="26.7" height="26.7"/>
          <rect class="cls-1" x="272.2" y="671.8" width="26.7" height="26.7"/>
          <rect class="cls-1" x="272.2" y="645.2" width="26.7" height="26.7"/>
          <rect class="cls-1" x="272.2" y="618.6" width="26.7" height="26.7"/>
          <rect class="cls-1" x="272.2" y="591.9" width="26.7" height="26.7"/>
          <rect class="cls-2" x="272.2" y="565.3" width="26.7" height="26.7"/>
          <rect class="cls-2" x="272.2" y="538.6" width="26.7" height="26.7"/>
          <rect class="cls-2" x="272.2" y="512" width="26.7" height="26.7"/>
          <rect class="cls-5" x="272.2" y="485.4" width="26.7" height="26.7"/>
          <rect class="cls-5" x="272.2" y="458.7" width="26.7" height="26.7"/>
          <rect class="cls-5" x="272.2" y="432.1" width="26.7" height="26.7"/>
          <rect class="cls-5" x="272.2" y="405.4" width="26.7" height="26.7"/>
          <rect class="cls-5" x="272.2" y="378.8" width="26.7" height="26.7"/>
          <rect class="cls-5" x="272.2" y="352.1" width="26.7" height="26.7"/>
          <rect class="cls-5" x="245.7" y="751.7" width="26.7" height="26.7"/>
          <rect class="cls-2" x="245.7" y="725.1" width="26.7" height="26.7"/>
          <rect class="cls-1" x="245.7" y="698.4" width="26.7" height="26.7"/>
          <rect class="cls-1" x="245.7" y="671.8" width="26.7" height="26.7"/>
          <rect class="cls-1" x="245.7" y="645.2" width="26.7" height="26.7"/>
          <rect class="cls-1" x="245.7" y="618.6" width="26.7" height="26.7"/>
          <rect class="cls-2" x="245.7" y="591.9" width="26.7" height="26.7"/>
          <rect class="cls-5" x="245.7" y="565.3" width="26.7" height="26.7"/>
          <rect class="cls-5" x="245.7" y="538.6" width="26.7" height="26.7"/>
          <rect class="cls-5" x="245.7" y="512" width="26.7" height="26.7"/>
          <rect class="cls-5" x="219" y="725.1" width="26.7" height="26.7"/>
          <rect class="cls-2" x="219" y="698.4" width="26.7" height="26.7"/>
          <rect class="cls-2" x="219" y="671.8" width="26.7" height="26.7"/>
          <rect class="cls-2" x="219" y="645.2" width="26.7" height="26.7"/>
          <rect class="cls-2" x="219" y="618.6" width="26.7" height="26.7"/>
          <rect class="cls-5" x="219" y="591.9" width="26.7" height="26.7"/>
          <rect class="cls-5" x="192.4" y="698.4" width="26.7" height="26.7"/>
          <rect class="cls-5" x="192.4" y="671.8" width="26.7" height="26.7"/>
          <rect class="cls-5" x="192.4" y="645.2" width="26.7" height="26.7"/>
          <rect class="cls-5" x="192.4" y="618.6" width="26.7" height="26.7"/>
        </g>
      </g>
    </g>
  </g>
</svg>